%TF.GenerationSoftware,KiCad,Pcbnew,8.0.1*%
%TF.CreationDate,2024-04-05T16:28:00+11:00*%
%TF.ProjectId,Tiny Solar Supply,54696e79-2053-46f6-9c61-722053757070,rev?*%
%TF.SameCoordinates,Original*%
%TF.FileFunction,Copper,L1,Top*%
%TF.FilePolarity,Positive*%
%FSLAX46Y46*%
G04 Gerber Fmt 4.6, Leading zero omitted, Abs format (unit mm)*
G04 Created by KiCad (PCBNEW 8.0.1) date 2024-04-05 16:28:00*
%MOMM*%
%LPD*%
G01*
G04 APERTURE LIST*
G04 Aperture macros list*
%AMRoundRect*
0 Rectangle with rounded corners*
0 $1 Rounding radius*
0 $2 $3 $4 $5 $6 $7 $8 $9 X,Y pos of 4 corners*
0 Add a 4 corners polygon primitive as box body*
4,1,4,$2,$3,$4,$5,$6,$7,$8,$9,$2,$3,0*
0 Add four circle primitives for the rounded corners*
1,1,$1+$1,$2,$3*
1,1,$1+$1,$4,$5*
1,1,$1+$1,$6,$7*
1,1,$1+$1,$8,$9*
0 Add four rect primitives between the rounded corners*
20,1,$1+$1,$2,$3,$4,$5,0*
20,1,$1+$1,$4,$5,$6,$7,0*
20,1,$1+$1,$6,$7,$8,$9,0*
20,1,$1+$1,$8,$9,$2,$3,0*%
G04 Aperture macros list end*
%TA.AperFunction,SMDPad,CuDef*%
%ADD10RoundRect,0.150000X-0.587500X-0.150000X0.587500X-0.150000X0.587500X0.150000X-0.587500X0.150000X0*%
%TD*%
%TA.AperFunction,SMDPad,CuDef*%
%ADD11R,2.120000X1.500000*%
%TD*%
%TA.AperFunction,SMDPad,CuDef*%
%ADD12RoundRect,0.250000X-0.262500X-0.450000X0.262500X-0.450000X0.262500X0.450000X-0.262500X0.450000X0*%
%TD*%
%TA.AperFunction,SMDPad,CuDef*%
%ADD13RoundRect,0.250000X0.262500X0.450000X-0.262500X0.450000X-0.262500X-0.450000X0.262500X-0.450000X0*%
%TD*%
%TA.AperFunction,SMDPad,CuDef*%
%ADD14RoundRect,0.250000X0.250000X0.475000X-0.250000X0.475000X-0.250000X-0.475000X0.250000X-0.475000X0*%
%TD*%
%TA.AperFunction,ComponentPad*%
%ADD15R,1.700000X1.700000*%
%TD*%
%TA.AperFunction,ComponentPad*%
%ADD16O,1.700000X1.700000*%
%TD*%
%TA.AperFunction,SMDPad,CuDef*%
%ADD17R,3.302000X2.667000*%
%TD*%
%TA.AperFunction,SMDPad,CuDef*%
%ADD18RoundRect,0.250000X-0.650000X0.325000X-0.650000X-0.325000X0.650000X-0.325000X0.650000X0.325000X0*%
%TD*%
%TA.AperFunction,ComponentPad*%
%ADD19R,1.350000X1.350000*%
%TD*%
%TA.AperFunction,ComponentPad*%
%ADD20O,1.350000X1.350000*%
%TD*%
%TA.AperFunction,SMDPad,CuDef*%
%ADD21RoundRect,0.030600X-0.554400X-0.224400X0.554400X-0.224400X0.554400X0.224400X-0.554400X0.224400X0*%
%TD*%
%TA.AperFunction,SMDPad,CuDef*%
%ADD22RoundRect,0.030600X0.554400X0.224400X-0.554400X0.224400X-0.554400X-0.224400X0.554400X-0.224400X0*%
%TD*%
%TA.AperFunction,SMDPad,CuDef*%
%ADD23RoundRect,0.250000X-0.450000X0.262500X-0.450000X-0.262500X0.450000X-0.262500X0.450000X0.262500X0*%
%TD*%
%TA.AperFunction,ComponentPad*%
%ADD24R,1.600000X1.600000*%
%TD*%
%TA.AperFunction,ComponentPad*%
%ADD25O,1.600000X1.600000*%
%TD*%
%TA.AperFunction,SMDPad,CuDef*%
%ADD26RoundRect,0.250000X-0.250000X-0.475000X0.250000X-0.475000X0.250000X0.475000X-0.250000X0.475000X0*%
%TD*%
%TA.AperFunction,ViaPad*%
%ADD27C,0.800000*%
%TD*%
%TA.AperFunction,Conductor*%
%ADD28C,0.250000*%
%TD*%
%TA.AperFunction,Conductor*%
%ADD29C,0.350000*%
%TD*%
G04 APERTURE END LIST*
D10*
%TO.P,Q1,1,G*%
%TO.N,/SOLAR_P*%
X157891000Y-121224000D03*
%TO.P,Q1,2,S*%
%TO.N,GNDD*%
X157891000Y-123124000D03*
%TO.P,Q1,3,D*%
%TO.N,Net-(Q1-D)*%
X159766000Y-122174000D03*
%TD*%
D11*
%TO.P,D2,A*%
%TO.N,/SOLAR_P*%
X154432000Y-112268000D03*
%TO.P,D2,C*%
%TO.N,/BAT_P*%
X158662000Y-112268000D03*
%TD*%
D12*
%TO.P,R4,1*%
%TO.N,/SOLAR_P*%
X154027500Y-126492000D03*
%TO.P,R4,2*%
%TO.N,GNDD*%
X155852500Y-126492000D03*
%TD*%
D13*
%TO.P,R2,1*%
%TO.N,Net-(U1-FB)*%
X160805500Y-126619000D03*
%TO.P,R2,2*%
%TO.N,GNDD*%
X158980500Y-126619000D03*
%TD*%
D14*
%TO.P,C3,1*%
%TO.N,/OUT_P*%
X172781000Y-126111000D03*
%TO.P,C3,2*%
%TO.N,Net-(U1-FB)*%
X170881000Y-126111000D03*
%TD*%
D11*
%TO.P,D1,A*%
%TO.N,Net-(U1-SW)*%
X166199000Y-112268000D03*
%TO.P,D1,C*%
%TO.N,/OUT_P*%
X161969000Y-112268000D03*
%TD*%
D15*
%TO.P,J2,1,Pin_1*%
%TO.N,GNDD*%
X150876000Y-123952000D03*
D16*
%TO.P,J2,2,Pin_2*%
%TO.N,/BAT_P*%
X150876000Y-121412000D03*
%TD*%
D17*
%TO.P,L1,1,1*%
%TO.N,Net-(U1-SW)*%
X171704000Y-113982500D03*
%TO.P,L1,2,2*%
%TO.N,Net-(J3-Pin_1)*%
X171704000Y-119113300D03*
%TD*%
D13*
%TO.P,R1,1*%
%TO.N,/OUT_P*%
X165631500Y-126619000D03*
%TO.P,R1,2*%
%TO.N,Net-(U1-FB)*%
X163806500Y-126619000D03*
%TD*%
D18*
%TO.P,C2,1*%
%TO.N,/OUT_P*%
X165735000Y-115619000D03*
%TO.P,C2,2*%
%TO.N,GNDD*%
X165735000Y-118569000D03*
%TD*%
D19*
%TO.P,J4,1,Pin_1*%
%TO.N,/SOLAR_P*%
X149860000Y-117062000D03*
D20*
%TO.P,J4,2,Pin_2*%
%TO.N,GNDD*%
X149860000Y-115062000D03*
%TD*%
D21*
%TO.P,U1,1,SW*%
%TO.N,Net-(U1-SW)*%
X163088000Y-121224000D03*
%TO.P,U1,2,GND*%
%TO.N,GNDD*%
X163088000Y-122174000D03*
%TO.P,U1,3,FB*%
%TO.N,Net-(U1-FB)*%
X163088000Y-123124000D03*
D22*
%TO.P,U1,4,~{SHDN}*%
%TO.N,Net-(Q1-D)*%
X165588000Y-123124000D03*
%TO.P,U1,5,VIN*%
%TO.N,Net-(J3-Pin_1)*%
X165588000Y-121224000D03*
%TD*%
D15*
%TO.P,J1,1,Pin_1*%
%TO.N,GNDD*%
X177546000Y-119380000D03*
D16*
%TO.P,J1,2,Pin_2*%
%TO.N,/OUT_P*%
X177546000Y-121920000D03*
%TD*%
D23*
%TO.P,R3,1*%
%TO.N,Net-(J3-Pin_1)*%
X154178000Y-121261500D03*
%TO.P,R3,2*%
%TO.N,Net-(Q1-D)*%
X154178000Y-123086500D03*
%TD*%
D24*
%TO.P,J3,1,Pin_1*%
%TO.N,Net-(J3-Pin_1)*%
X154432000Y-117094000D03*
D25*
%TO.P,J3,2,Pin_2*%
%TO.N,/BAT_P*%
X162052000Y-117094000D03*
%TD*%
D26*
%TO.P,C1,1*%
%TO.N,Net-(J3-Pin_1)*%
X170881000Y-123063000D03*
%TO.P,C1,2*%
%TO.N,GNDD*%
X172781000Y-123063000D03*
%TD*%
D27*
%TO.N,Net-(J3-Pin_1)*%
X167050000Y-120400000D03*
X155800000Y-120350000D03*
%TO.N,GNDD*%
X161650000Y-121900000D03*
X156200000Y-123150000D03*
X167300000Y-118550000D03*
X174400000Y-122850000D03*
X157500000Y-125850000D03*
%TD*%
D28*
%TO.N,Net-(J3-Pin_1)*%
X167386000Y-121224000D02*
X167386000Y-120736000D01*
X154432000Y-121007500D02*
X154178000Y-121261500D01*
X155800000Y-120350000D02*
X155592000Y-120142000D01*
X167386000Y-121224000D02*
X169593300Y-121224000D01*
X167386000Y-120736000D02*
X167050000Y-120400000D01*
X155592000Y-120142000D02*
X154432000Y-120142000D01*
X154432000Y-120142000D02*
X154432000Y-121007500D01*
X170881000Y-123063000D02*
X170881000Y-119936300D01*
X170881000Y-119936300D02*
X171704000Y-119113300D01*
X154432000Y-117094000D02*
X154432000Y-120142000D01*
X165588000Y-121224000D02*
X167386000Y-121224000D01*
X169593300Y-121224000D02*
X171704000Y-119113300D01*
%TO.N,GNDD*%
X157500000Y-125850000D02*
X158269000Y-126619000D01*
X161924000Y-122174000D02*
X161650000Y-121900000D01*
X163088000Y-122174000D02*
X161924000Y-122174000D01*
X157891000Y-123124000D02*
X156226000Y-123124000D01*
X167281000Y-118569000D02*
X167300000Y-118550000D01*
X156858000Y-126492000D02*
X155852500Y-126492000D01*
X156226000Y-123124000D02*
X156200000Y-123150000D01*
X172781000Y-123063000D02*
X174187000Y-123063000D01*
X165735000Y-118569000D02*
X167281000Y-118569000D01*
X157500000Y-125850000D02*
X156858000Y-126492000D01*
X158269000Y-126619000D02*
X158980500Y-126619000D01*
X174187000Y-123063000D02*
X174400000Y-122850000D01*
D29*
%TO.N,/OUT_P*%
X165631500Y-126619000D02*
X166266500Y-127254000D01*
X161969000Y-112268000D02*
X162384000Y-112268000D01*
X163237000Y-111000000D02*
X176200000Y-111000000D01*
X174889000Y-126111000D02*
X177546000Y-123454000D01*
X177546000Y-123454000D02*
X177546000Y-121920000D01*
X172781000Y-126111000D02*
X174889000Y-126111000D01*
X166266500Y-127254000D02*
X171638000Y-127254000D01*
X171638000Y-127254000D02*
X172781000Y-126111000D01*
X162384000Y-112268000D02*
X165735000Y-115619000D01*
X161969000Y-112268000D02*
X163237000Y-111000000D01*
X176200000Y-111000000D02*
X180050000Y-114850000D01*
X180050000Y-119416000D02*
X177546000Y-121920000D01*
X180050000Y-114850000D02*
X180050000Y-119416000D01*
D28*
%TO.N,Net-(U1-FB)*%
X167894000Y-123522000D02*
X167894000Y-124968000D01*
X163088000Y-123124000D02*
X163642000Y-123124000D01*
X163642000Y-123124000D02*
X164338000Y-122428000D01*
X160805500Y-126619000D02*
X163806500Y-126619000D01*
X170881000Y-126111000D02*
X169738000Y-124968000D01*
X169738000Y-124968000D02*
X167894000Y-124968000D01*
X166800000Y-122428000D02*
X167894000Y-123522000D01*
X167894000Y-124968000D02*
X165457500Y-124968000D01*
X165457500Y-124968000D02*
X163806500Y-126619000D01*
X164338000Y-122428000D02*
X166800000Y-122428000D01*
%TO.N,Net-(U1-SW)*%
X171186000Y-111750000D02*
X171704000Y-112268000D01*
X163088000Y-121224000D02*
X163088000Y-118090000D01*
X163830000Y-117348000D02*
X166116000Y-117348000D01*
X166199000Y-112268000D02*
X166717000Y-111750000D01*
X166116000Y-117348000D02*
X167250000Y-116214000D01*
X163088000Y-118090000D02*
X163830000Y-117348000D01*
X171704000Y-112268000D02*
X171704000Y-113982500D01*
X166717000Y-111750000D02*
X171186000Y-111750000D01*
X167250000Y-116214000D02*
X167250000Y-113319000D01*
X167250000Y-113319000D02*
X166199000Y-112268000D01*
D29*
%TO.N,/BAT_P*%
X157988000Y-114554000D02*
X158750000Y-113792000D01*
X150876000Y-121412000D02*
X152908000Y-119380000D01*
X153670000Y-114554000D02*
X157988000Y-114554000D01*
X158750000Y-113792000D02*
X162052000Y-117094000D01*
X152908000Y-119380000D02*
X152908000Y-115316000D01*
X158662000Y-112268000D02*
X158662000Y-113704000D01*
X158662000Y-113704000D02*
X158750000Y-113792000D01*
X152908000Y-115316000D02*
X153670000Y-114554000D01*
%TO.N,/SOLAR_P*%
X152400000Y-124250000D02*
X152400000Y-122149000D01*
X152400000Y-122149000D02*
X152121000Y-122149000D01*
X153162000Y-112268000D02*
X154432000Y-112268000D01*
X151633000Y-122637000D02*
X150368588Y-122637000D01*
X156966000Y-122149000D02*
X152400000Y-122149000D01*
X150368588Y-122637000D02*
X149606000Y-121874412D01*
X149606000Y-121874412D02*
X149606000Y-117316000D01*
X152400000Y-113030000D02*
X153162000Y-112268000D01*
X150146000Y-117062000D02*
X152400000Y-114808000D01*
X149860000Y-117062000D02*
X149860000Y-117348000D01*
X157891000Y-121224000D02*
X156966000Y-122149000D01*
X149606000Y-117316000D02*
X149860000Y-117062000D01*
X154027500Y-125877500D02*
X152400000Y-124250000D01*
X152400000Y-114808000D02*
X152400000Y-113030000D01*
X154027500Y-126492000D02*
X154027500Y-125877500D01*
X149860000Y-117062000D02*
X150146000Y-117062000D01*
X152121000Y-122149000D02*
X151633000Y-122637000D01*
D28*
%TO.N,Net-(Q1-D)*%
X155297500Y-124206000D02*
X159766000Y-124206000D01*
X165588000Y-123124000D02*
X164912000Y-123124000D01*
X160528000Y-123444000D02*
X160782000Y-123190000D01*
X163830000Y-124206000D02*
X161290000Y-124206000D01*
X161290000Y-124206000D02*
X160528000Y-123444000D01*
X154178000Y-123086500D02*
X155297500Y-124206000D01*
X160782000Y-122428000D02*
X160528000Y-122174000D01*
X160528000Y-122174000D02*
X159766000Y-122174000D01*
X159766000Y-124206000D02*
X160528000Y-123444000D01*
X164912000Y-123124000D02*
X163830000Y-124206000D01*
X160782000Y-123190000D02*
X160782000Y-122428000D01*
%TD*%
M02*
