%TF.GenerationSoftware,KiCad,Pcbnew,8.0.1*%
%TF.CreationDate,2024-04-05T16:28:00+11:00*%
%TF.ProjectId,Tiny Solar Supply,54696e79-2053-46f6-9c61-722053757070,rev?*%
%TF.SameCoordinates,Original*%
%TF.FileFunction,Legend,Top*%
%TF.FilePolarity,Positive*%
%FSLAX46Y46*%
G04 Gerber Fmt 4.6, Leading zero omitted, Abs format (unit mm)*
G04 Created by KiCad (PCBNEW 8.0.1) date 2024-04-05 16:28:00*
%MOMM*%
%LPD*%
G01*
G04 APERTURE LIST*
%ADD10C,0.150000*%
%ADD11C,0.100000*%
%ADD12C,0.120000*%
%ADD13C,0.127000*%
%ADD14C,0.200000*%
%ADD15C,0.152400*%
G04 APERTURE END LIST*
D10*
X150958779Y-113280866D02*
X151720684Y-113280866D01*
X176612779Y-124288866D02*
X177374684Y-124288866D01*
X176993731Y-124669819D02*
X176993731Y-123907914D01*
X151212779Y-119122866D02*
X151974684Y-119122866D01*
X151593731Y-119503819D02*
X151593731Y-118741914D01*
X151212779Y-125980866D02*
X151974684Y-125980866D01*
X176612779Y-117090866D02*
X177374684Y-117090866D01*
D11*
X161423809Y-123541085D02*
X161347619Y-123502990D01*
X161347619Y-123502990D02*
X161271428Y-123426800D01*
X161271428Y-123426800D02*
X161157142Y-123312514D01*
X161157142Y-123312514D02*
X161080952Y-123274419D01*
X161080952Y-123274419D02*
X161004761Y-123274419D01*
X161042857Y-123464895D02*
X160966666Y-123426800D01*
X160966666Y-123426800D02*
X160890476Y-123350609D01*
X160890476Y-123350609D02*
X160852380Y-123198228D01*
X160852380Y-123198228D02*
X160852380Y-122931561D01*
X160852380Y-122931561D02*
X160890476Y-122779180D01*
X160890476Y-122779180D02*
X160966666Y-122702990D01*
X160966666Y-122702990D02*
X161042857Y-122664895D01*
X161042857Y-122664895D02*
X161195238Y-122664895D01*
X161195238Y-122664895D02*
X161271428Y-122702990D01*
X161271428Y-122702990D02*
X161347619Y-122779180D01*
X161347619Y-122779180D02*
X161385714Y-122931561D01*
X161385714Y-122931561D02*
X161385714Y-123198228D01*
X161385714Y-123198228D02*
X161347619Y-123350609D01*
X161347619Y-123350609D02*
X161271428Y-123426800D01*
X161271428Y-123426800D02*
X161195238Y-123464895D01*
X161195238Y-123464895D02*
X161042857Y-123464895D01*
X162147618Y-123464895D02*
X161690475Y-123464895D01*
X161919047Y-123464895D02*
X161919047Y-122664895D01*
X161919047Y-122664895D02*
X161842856Y-122779180D01*
X161842856Y-122779180D02*
X161766666Y-122855371D01*
X161766666Y-122855371D02*
X161690475Y-122893466D01*
X151609524Y-112564895D02*
X151609524Y-111764895D01*
X151609524Y-111764895D02*
X151800000Y-111764895D01*
X151800000Y-111764895D02*
X151914286Y-111802990D01*
X151914286Y-111802990D02*
X151990476Y-111879180D01*
X151990476Y-111879180D02*
X152028571Y-111955371D01*
X152028571Y-111955371D02*
X152066667Y-112107752D01*
X152066667Y-112107752D02*
X152066667Y-112222038D01*
X152066667Y-112222038D02*
X152028571Y-112374419D01*
X152028571Y-112374419D02*
X151990476Y-112450609D01*
X151990476Y-112450609D02*
X151914286Y-112526800D01*
X151914286Y-112526800D02*
X151800000Y-112564895D01*
X151800000Y-112564895D02*
X151609524Y-112564895D01*
X152371428Y-111841085D02*
X152409524Y-111802990D01*
X152409524Y-111802990D02*
X152485714Y-111764895D01*
X152485714Y-111764895D02*
X152676190Y-111764895D01*
X152676190Y-111764895D02*
X152752381Y-111802990D01*
X152752381Y-111802990D02*
X152790476Y-111841085D01*
X152790476Y-111841085D02*
X152828571Y-111917276D01*
X152828571Y-111917276D02*
X152828571Y-111993466D01*
X152828571Y-111993466D02*
X152790476Y-112107752D01*
X152790476Y-112107752D02*
X152333333Y-112564895D01*
X152333333Y-112564895D02*
X152828571Y-112564895D01*
X156566667Y-125264895D02*
X156300000Y-124883942D01*
X156109524Y-125264895D02*
X156109524Y-124464895D01*
X156109524Y-124464895D02*
X156414286Y-124464895D01*
X156414286Y-124464895D02*
X156490476Y-124502990D01*
X156490476Y-124502990D02*
X156528571Y-124541085D01*
X156528571Y-124541085D02*
X156566667Y-124617276D01*
X156566667Y-124617276D02*
X156566667Y-124731561D01*
X156566667Y-124731561D02*
X156528571Y-124807752D01*
X156528571Y-124807752D02*
X156490476Y-124845847D01*
X156490476Y-124845847D02*
X156414286Y-124883942D01*
X156414286Y-124883942D02*
X156109524Y-124883942D01*
X157252381Y-124731561D02*
X157252381Y-125264895D01*
X157061905Y-124426800D02*
X156871428Y-124998228D01*
X156871428Y-124998228D02*
X157366667Y-124998228D01*
X161566667Y-125464895D02*
X161300000Y-125083942D01*
X161109524Y-125464895D02*
X161109524Y-124664895D01*
X161109524Y-124664895D02*
X161414286Y-124664895D01*
X161414286Y-124664895D02*
X161490476Y-124702990D01*
X161490476Y-124702990D02*
X161528571Y-124741085D01*
X161528571Y-124741085D02*
X161566667Y-124817276D01*
X161566667Y-124817276D02*
X161566667Y-124931561D01*
X161566667Y-124931561D02*
X161528571Y-125007752D01*
X161528571Y-125007752D02*
X161490476Y-125045847D01*
X161490476Y-125045847D02*
X161414286Y-125083942D01*
X161414286Y-125083942D02*
X161109524Y-125083942D01*
X161871428Y-124741085D02*
X161909524Y-124702990D01*
X161909524Y-124702990D02*
X161985714Y-124664895D01*
X161985714Y-124664895D02*
X162176190Y-124664895D01*
X162176190Y-124664895D02*
X162252381Y-124702990D01*
X162252381Y-124702990D02*
X162290476Y-124741085D01*
X162290476Y-124741085D02*
X162328571Y-124817276D01*
X162328571Y-124817276D02*
X162328571Y-124893466D01*
X162328571Y-124893466D02*
X162290476Y-125007752D01*
X162290476Y-125007752D02*
X161833333Y-125464895D01*
X161833333Y-125464895D02*
X162328571Y-125464895D01*
X174266667Y-125688704D02*
X174228571Y-125726800D01*
X174228571Y-125726800D02*
X174114286Y-125764895D01*
X174114286Y-125764895D02*
X174038095Y-125764895D01*
X174038095Y-125764895D02*
X173923809Y-125726800D01*
X173923809Y-125726800D02*
X173847619Y-125650609D01*
X173847619Y-125650609D02*
X173809524Y-125574419D01*
X173809524Y-125574419D02*
X173771428Y-125422038D01*
X173771428Y-125422038D02*
X173771428Y-125307752D01*
X173771428Y-125307752D02*
X173809524Y-125155371D01*
X173809524Y-125155371D02*
X173847619Y-125079180D01*
X173847619Y-125079180D02*
X173923809Y-125002990D01*
X173923809Y-125002990D02*
X174038095Y-124964895D01*
X174038095Y-124964895D02*
X174114286Y-124964895D01*
X174114286Y-124964895D02*
X174228571Y-125002990D01*
X174228571Y-125002990D02*
X174266667Y-125041085D01*
X174533333Y-124964895D02*
X175028571Y-124964895D01*
X175028571Y-124964895D02*
X174761905Y-125269657D01*
X174761905Y-125269657D02*
X174876190Y-125269657D01*
X174876190Y-125269657D02*
X174952381Y-125307752D01*
X174952381Y-125307752D02*
X174990476Y-125345847D01*
X174990476Y-125345847D02*
X175028571Y-125422038D01*
X175028571Y-125422038D02*
X175028571Y-125612514D01*
X175028571Y-125612514D02*
X174990476Y-125688704D01*
X174990476Y-125688704D02*
X174952381Y-125726800D01*
X174952381Y-125726800D02*
X174876190Y-125764895D01*
X174876190Y-125764895D02*
X174647619Y-125764895D01*
X174647619Y-125764895D02*
X174571428Y-125726800D01*
X174571428Y-125726800D02*
X174533333Y-125688704D01*
X163609524Y-114664895D02*
X163609524Y-113864895D01*
X163609524Y-113864895D02*
X163800000Y-113864895D01*
X163800000Y-113864895D02*
X163914286Y-113902990D01*
X163914286Y-113902990D02*
X163990476Y-113979180D01*
X163990476Y-113979180D02*
X164028571Y-114055371D01*
X164028571Y-114055371D02*
X164066667Y-114207752D01*
X164066667Y-114207752D02*
X164066667Y-114322038D01*
X164066667Y-114322038D02*
X164028571Y-114474419D01*
X164028571Y-114474419D02*
X163990476Y-114550609D01*
X163990476Y-114550609D02*
X163914286Y-114626800D01*
X163914286Y-114626800D02*
X163800000Y-114664895D01*
X163800000Y-114664895D02*
X163609524Y-114664895D01*
X164828571Y-114664895D02*
X164371428Y-114664895D01*
X164600000Y-114664895D02*
X164600000Y-113864895D01*
X164600000Y-113864895D02*
X164523809Y-113979180D01*
X164523809Y-113979180D02*
X164447619Y-114055371D01*
X164447619Y-114055371D02*
X164371428Y-114093466D01*
X149593333Y-125548895D02*
X149593333Y-126120323D01*
X149593333Y-126120323D02*
X149555238Y-126234609D01*
X149555238Y-126234609D02*
X149479047Y-126310800D01*
X149479047Y-126310800D02*
X149364762Y-126348895D01*
X149364762Y-126348895D02*
X149288571Y-126348895D01*
X149936190Y-125625085D02*
X149974286Y-125586990D01*
X149974286Y-125586990D02*
X150050476Y-125548895D01*
X150050476Y-125548895D02*
X150240952Y-125548895D01*
X150240952Y-125548895D02*
X150317143Y-125586990D01*
X150317143Y-125586990D02*
X150355238Y-125625085D01*
X150355238Y-125625085D02*
X150393333Y-125701276D01*
X150393333Y-125701276D02*
X150393333Y-125777466D01*
X150393333Y-125777466D02*
X150355238Y-125891752D01*
X150355238Y-125891752D02*
X149898095Y-126348895D01*
X149898095Y-126348895D02*
X150393333Y-126348895D01*
X176166666Y-113364895D02*
X175785714Y-113364895D01*
X175785714Y-113364895D02*
X175785714Y-112564895D01*
X176852380Y-113364895D02*
X176395237Y-113364895D01*
X176623809Y-113364895D02*
X176623809Y-112564895D01*
X176623809Y-112564895D02*
X176547618Y-112679180D01*
X176547618Y-112679180D02*
X176471428Y-112755371D01*
X176471428Y-112755371D02*
X176395237Y-112793466D01*
X166266667Y-125464895D02*
X166000000Y-125083942D01*
X165809524Y-125464895D02*
X165809524Y-124664895D01*
X165809524Y-124664895D02*
X166114286Y-124664895D01*
X166114286Y-124664895D02*
X166190476Y-124702990D01*
X166190476Y-124702990D02*
X166228571Y-124741085D01*
X166228571Y-124741085D02*
X166266667Y-124817276D01*
X166266667Y-124817276D02*
X166266667Y-124931561D01*
X166266667Y-124931561D02*
X166228571Y-125007752D01*
X166228571Y-125007752D02*
X166190476Y-125045847D01*
X166190476Y-125045847D02*
X166114286Y-125083942D01*
X166114286Y-125083942D02*
X165809524Y-125083942D01*
X167028571Y-125464895D02*
X166571428Y-125464895D01*
X166800000Y-125464895D02*
X166800000Y-124664895D01*
X166800000Y-124664895D02*
X166723809Y-124779180D01*
X166723809Y-124779180D02*
X166647619Y-124855371D01*
X166647619Y-124855371D02*
X166571428Y-124893466D01*
X165566667Y-120188704D02*
X165528571Y-120226800D01*
X165528571Y-120226800D02*
X165414286Y-120264895D01*
X165414286Y-120264895D02*
X165338095Y-120264895D01*
X165338095Y-120264895D02*
X165223809Y-120226800D01*
X165223809Y-120226800D02*
X165147619Y-120150609D01*
X165147619Y-120150609D02*
X165109524Y-120074419D01*
X165109524Y-120074419D02*
X165071428Y-119922038D01*
X165071428Y-119922038D02*
X165071428Y-119807752D01*
X165071428Y-119807752D02*
X165109524Y-119655371D01*
X165109524Y-119655371D02*
X165147619Y-119579180D01*
X165147619Y-119579180D02*
X165223809Y-119502990D01*
X165223809Y-119502990D02*
X165338095Y-119464895D01*
X165338095Y-119464895D02*
X165414286Y-119464895D01*
X165414286Y-119464895D02*
X165528571Y-119502990D01*
X165528571Y-119502990D02*
X165566667Y-119541085D01*
X165871428Y-119541085D02*
X165909524Y-119502990D01*
X165909524Y-119502990D02*
X165985714Y-119464895D01*
X165985714Y-119464895D02*
X166176190Y-119464895D01*
X166176190Y-119464895D02*
X166252381Y-119502990D01*
X166252381Y-119502990D02*
X166290476Y-119541085D01*
X166290476Y-119541085D02*
X166328571Y-119617276D01*
X166328571Y-119617276D02*
X166328571Y-119693466D01*
X166328571Y-119693466D02*
X166290476Y-119807752D01*
X166290476Y-119807752D02*
X165833333Y-120264895D01*
X165833333Y-120264895D02*
X166328571Y-120264895D01*
X148831333Y-112564895D02*
X148831333Y-113136323D01*
X148831333Y-113136323D02*
X148793238Y-113250609D01*
X148793238Y-113250609D02*
X148717047Y-113326800D01*
X148717047Y-113326800D02*
X148602762Y-113364895D01*
X148602762Y-113364895D02*
X148526571Y-113364895D01*
X149555143Y-112831561D02*
X149555143Y-113364895D01*
X149364667Y-112526800D02*
X149174190Y-113098228D01*
X149174190Y-113098228D02*
X149669429Y-113098228D01*
X166690476Y-122964895D02*
X166690476Y-123612514D01*
X166690476Y-123612514D02*
X166728571Y-123688704D01*
X166728571Y-123688704D02*
X166766666Y-123726800D01*
X166766666Y-123726800D02*
X166842857Y-123764895D01*
X166842857Y-123764895D02*
X166995238Y-123764895D01*
X166995238Y-123764895D02*
X167071428Y-123726800D01*
X167071428Y-123726800D02*
X167109523Y-123688704D01*
X167109523Y-123688704D02*
X167147619Y-123612514D01*
X167147619Y-123612514D02*
X167147619Y-122964895D01*
X167947618Y-123764895D02*
X167490475Y-123764895D01*
X167719047Y-123764895D02*
X167719047Y-122964895D01*
X167719047Y-122964895D02*
X167642856Y-123079180D01*
X167642856Y-123079180D02*
X167566666Y-123155371D01*
X167566666Y-123155371D02*
X167490475Y-123193466D01*
X178633333Y-116664895D02*
X178633333Y-117236323D01*
X178633333Y-117236323D02*
X178595238Y-117350609D01*
X178595238Y-117350609D02*
X178519047Y-117426800D01*
X178519047Y-117426800D02*
X178404762Y-117464895D01*
X178404762Y-117464895D02*
X178328571Y-117464895D01*
X179433333Y-117464895D02*
X178976190Y-117464895D01*
X179204762Y-117464895D02*
X179204762Y-116664895D01*
X179204762Y-116664895D02*
X179128571Y-116779180D01*
X179128571Y-116779180D02*
X179052381Y-116855371D01*
X179052381Y-116855371D02*
X178976190Y-116893466D01*
X154066667Y-124864895D02*
X153800000Y-124483942D01*
X153609524Y-124864895D02*
X153609524Y-124064895D01*
X153609524Y-124064895D02*
X153914286Y-124064895D01*
X153914286Y-124064895D02*
X153990476Y-124102990D01*
X153990476Y-124102990D02*
X154028571Y-124141085D01*
X154028571Y-124141085D02*
X154066667Y-124217276D01*
X154066667Y-124217276D02*
X154066667Y-124331561D01*
X154066667Y-124331561D02*
X154028571Y-124407752D01*
X154028571Y-124407752D02*
X153990476Y-124445847D01*
X153990476Y-124445847D02*
X153914286Y-124483942D01*
X153914286Y-124483942D02*
X153609524Y-124483942D01*
X154333333Y-124064895D02*
X154828571Y-124064895D01*
X154828571Y-124064895D02*
X154561905Y-124369657D01*
X154561905Y-124369657D02*
X154676190Y-124369657D01*
X154676190Y-124369657D02*
X154752381Y-124407752D01*
X154752381Y-124407752D02*
X154790476Y-124445847D01*
X154790476Y-124445847D02*
X154828571Y-124522038D01*
X154828571Y-124522038D02*
X154828571Y-124712514D01*
X154828571Y-124712514D02*
X154790476Y-124788704D01*
X154790476Y-124788704D02*
X154752381Y-124826800D01*
X154752381Y-124826800D02*
X154676190Y-124864895D01*
X154676190Y-124864895D02*
X154447619Y-124864895D01*
X154447619Y-124864895D02*
X154371428Y-124826800D01*
X154371428Y-124826800D02*
X154333333Y-124788704D01*
X152133333Y-118664895D02*
X152133333Y-119236323D01*
X152133333Y-119236323D02*
X152095238Y-119350609D01*
X152095238Y-119350609D02*
X152019047Y-119426800D01*
X152019047Y-119426800D02*
X151904762Y-119464895D01*
X151904762Y-119464895D02*
X151828571Y-119464895D01*
X152438095Y-118664895D02*
X152933333Y-118664895D01*
X152933333Y-118664895D02*
X152666667Y-118969657D01*
X152666667Y-118969657D02*
X152780952Y-118969657D01*
X152780952Y-118969657D02*
X152857143Y-119007752D01*
X152857143Y-119007752D02*
X152895238Y-119045847D01*
X152895238Y-119045847D02*
X152933333Y-119122038D01*
X152933333Y-119122038D02*
X152933333Y-119312514D01*
X152933333Y-119312514D02*
X152895238Y-119388704D01*
X152895238Y-119388704D02*
X152857143Y-119426800D01*
X152857143Y-119426800D02*
X152780952Y-119464895D01*
X152780952Y-119464895D02*
X152552381Y-119464895D01*
X152552381Y-119464895D02*
X152476190Y-119426800D01*
X152476190Y-119426800D02*
X152438095Y-119388704D01*
X174266667Y-124088704D02*
X174228571Y-124126800D01*
X174228571Y-124126800D02*
X174114286Y-124164895D01*
X174114286Y-124164895D02*
X174038095Y-124164895D01*
X174038095Y-124164895D02*
X173923809Y-124126800D01*
X173923809Y-124126800D02*
X173847619Y-124050609D01*
X173847619Y-124050609D02*
X173809524Y-123974419D01*
X173809524Y-123974419D02*
X173771428Y-123822038D01*
X173771428Y-123822038D02*
X173771428Y-123707752D01*
X173771428Y-123707752D02*
X173809524Y-123555371D01*
X173809524Y-123555371D02*
X173847619Y-123479180D01*
X173847619Y-123479180D02*
X173923809Y-123402990D01*
X173923809Y-123402990D02*
X174038095Y-123364895D01*
X174038095Y-123364895D02*
X174114286Y-123364895D01*
X174114286Y-123364895D02*
X174228571Y-123402990D01*
X174228571Y-123402990D02*
X174266667Y-123441085D01*
X175028571Y-124164895D02*
X174571428Y-124164895D01*
X174800000Y-124164895D02*
X174800000Y-123364895D01*
X174800000Y-123364895D02*
X174723809Y-123479180D01*
X174723809Y-123479180D02*
X174647619Y-123555371D01*
X174647619Y-123555371D02*
X174571428Y-123593466D01*
D12*
%TO.C,Q1*%
X158828500Y-120614000D02*
X157153500Y-120614000D01*
X158828500Y-120614000D02*
X159478500Y-120614000D01*
X158828500Y-123734000D02*
X158178500Y-123734000D01*
X158828500Y-123734000D02*
X159478500Y-123734000D01*
D13*
%TO.C,D2*%
X154382000Y-110988000D02*
X154382000Y-111198000D01*
X154382000Y-113338000D02*
X154382000Y-113548000D01*
X154382000Y-113548000D02*
X158712000Y-113548000D01*
X158712000Y-110988000D02*
X154382000Y-110988000D01*
X158712000Y-110988000D02*
X158712000Y-111198000D01*
X158712000Y-113548000D02*
X158712000Y-113338000D01*
D14*
X160647000Y-112268000D02*
G75*
G02*
X160447000Y-112268000I-100000J0D01*
G01*
X160447000Y-112268000D02*
G75*
G02*
X160647000Y-112268000I100000J0D01*
G01*
D12*
%TO.C,R4*%
X154712936Y-125757000D02*
X155167064Y-125757000D01*
X154712936Y-127227000D02*
X155167064Y-127227000D01*
%TO.C,R2*%
X160120064Y-125884000D02*
X159665936Y-125884000D01*
X160120064Y-127354000D02*
X159665936Y-127354000D01*
%TO.C,C3*%
X172092252Y-125376000D02*
X171569748Y-125376000D01*
X172092252Y-126846000D02*
X171569748Y-126846000D01*
D13*
%TO.C,D1*%
X161919000Y-110988000D02*
X161919000Y-111198000D01*
X161919000Y-113548000D02*
X161919000Y-113338000D01*
X161919000Y-113548000D02*
X166249000Y-113548000D01*
X166249000Y-110988000D02*
X161919000Y-110988000D01*
X166249000Y-111198000D02*
X166249000Y-110988000D01*
X166249000Y-113548000D02*
X166249000Y-113338000D01*
D14*
X160184000Y-112268000D02*
G75*
G02*
X159984000Y-112268000I-100000J0D01*
G01*
X159984000Y-112268000D02*
G75*
G02*
X160184000Y-112268000I100000J0D01*
G01*
D12*
%TO.C,J2*%
X140776000Y-121032000D02*
X146776000Y-121032000D01*
X140776000Y-121792000D02*
X140776000Y-121032000D01*
X140776000Y-123572000D02*
X146776000Y-123572000D01*
X140776000Y-124332000D02*
X140776000Y-123572000D01*
X146776000Y-120082000D02*
X146776000Y-125282000D01*
X146776000Y-121792000D02*
X140776000Y-121792000D01*
X146776000Y-123672000D02*
X140776000Y-123672000D01*
X146776000Y-123792000D02*
X140776000Y-123792000D01*
X146776000Y-123912000D02*
X140776000Y-123912000D01*
X146776000Y-124032000D02*
X140776000Y-124032000D01*
X146776000Y-124152000D02*
X140776000Y-124152000D01*
X146776000Y-124272000D02*
X140776000Y-124272000D01*
X146776000Y-124332000D02*
X140776000Y-124332000D01*
X146776000Y-125282000D02*
X149436000Y-125282000D01*
X149436000Y-120082000D02*
X146776000Y-120082000D01*
X149436000Y-122682000D02*
X146776000Y-122682000D01*
X149436000Y-125282000D02*
X149436000Y-120082000D01*
X149766000Y-123572000D02*
X149436000Y-123572000D01*
X149766000Y-124332000D02*
X149436000Y-124332000D01*
X149833071Y-121032000D02*
X149436000Y-121032000D01*
X149833071Y-121792000D02*
X149436000Y-121792000D01*
X152146000Y-123952000D02*
X152146000Y-125222000D01*
X152146000Y-125222000D02*
X150876000Y-125222000D01*
D15*
%TO.C,L1*%
X168148000Y-112674400D02*
X168148000Y-120421400D01*
X168148000Y-120421400D02*
X169720260Y-120421400D01*
X169720260Y-112674400D02*
X168148000Y-112674400D01*
X173687740Y-120421400D02*
X175260000Y-120421400D01*
X175260000Y-112674400D02*
X173687740Y-112674400D01*
X175260000Y-120421400D02*
X175260000Y-112674400D01*
X171780200Y-111531400D02*
G75*
G02*
X171627800Y-111531400I-76200J0D01*
G01*
X171627800Y-111531400D02*
G75*
G02*
X171780200Y-111531400I76200J0D01*
G01*
D12*
%TO.C,R1*%
X164946064Y-125884000D02*
X164491936Y-125884000D01*
X164946064Y-127354000D02*
X164491936Y-127354000D01*
%TO.C,C2*%
X164825000Y-116382748D02*
X164825000Y-117805252D01*
X166645000Y-116382748D02*
X166645000Y-117805252D01*
%TO.C,J4*%
X142600000Y-114752000D02*
X146800000Y-114752000D01*
X142600000Y-115372000D02*
X142600000Y-114752000D01*
X142600000Y-116752000D02*
X146800000Y-116752000D01*
X142600000Y-117372000D02*
X142600000Y-116752000D01*
X146800000Y-114002000D02*
X146800000Y-118122000D01*
X146800000Y-115372000D02*
X142600000Y-115372000D01*
X146800000Y-116832000D02*
X142600000Y-116832000D01*
X146800000Y-116952000D02*
X142600000Y-116952000D01*
X146800000Y-117072000D02*
X142600000Y-117072000D01*
X146800000Y-117192000D02*
X142600000Y-117192000D01*
X146800000Y-117312000D02*
X142600000Y-117312000D01*
X146800000Y-117372000D02*
X142600000Y-117372000D01*
X146800000Y-118122000D02*
X148420000Y-118122000D01*
X148420000Y-114002000D02*
X146800000Y-114002000D01*
X148420000Y-116062000D02*
X146800000Y-116062000D01*
X148420000Y-118122000D02*
X148420000Y-114002000D01*
X148925000Y-116752000D02*
X148420000Y-116752000D01*
X148925000Y-117372000D02*
X148420000Y-117372000D01*
X148977886Y-114752000D02*
X148420000Y-114752000D01*
X148977886Y-115372000D02*
X148420000Y-115372000D01*
X150860000Y-117062000D02*
X150860000Y-118062000D01*
X150860000Y-118062000D02*
X149860000Y-118062000D01*
D13*
%TO.C,U1*%
X163538000Y-120654000D02*
X165138000Y-120654000D01*
X163538000Y-123694000D02*
X165138000Y-123694000D01*
D14*
X161988000Y-121024000D02*
G75*
G02*
X161788000Y-121024000I-100000J0D01*
G01*
X161788000Y-121024000D02*
G75*
G02*
X161988000Y-121024000I100000J0D01*
G01*
D12*
%TO.C,J1*%
X176276000Y-118110000D02*
X177546000Y-118110000D01*
X176276000Y-119380000D02*
X176276000Y-118110000D01*
X178588929Y-121540000D02*
X178986000Y-121540000D01*
X178588929Y-122300000D02*
X178986000Y-122300000D01*
X178656000Y-119000000D02*
X178986000Y-119000000D01*
X178656000Y-119760000D02*
X178986000Y-119760000D01*
X178986000Y-118050000D02*
X178986000Y-123250000D01*
X178986000Y-120650000D02*
X181646000Y-120650000D01*
X178986000Y-123250000D02*
X181646000Y-123250000D01*
X181646000Y-118050000D02*
X178986000Y-118050000D01*
X181646000Y-119000000D02*
X187646000Y-119000000D01*
X181646000Y-119060000D02*
X187646000Y-119060000D01*
X181646000Y-119180000D02*
X187646000Y-119180000D01*
X181646000Y-119300000D02*
X187646000Y-119300000D01*
X181646000Y-119420000D02*
X187646000Y-119420000D01*
X181646000Y-119540000D02*
X187646000Y-119540000D01*
X181646000Y-119660000D02*
X187646000Y-119660000D01*
X181646000Y-121540000D02*
X187646000Y-121540000D01*
X181646000Y-123250000D02*
X181646000Y-118050000D01*
X187646000Y-119000000D02*
X187646000Y-119760000D01*
X187646000Y-119760000D02*
X181646000Y-119760000D01*
X187646000Y-121540000D02*
X187646000Y-122300000D01*
X187646000Y-122300000D02*
X181646000Y-122300000D01*
%TO.C,R3*%
X153443000Y-121946936D02*
X153443000Y-122401064D01*
X154913000Y-121946936D02*
X154913000Y-122401064D01*
%TO.C,J3*%
X153052000Y-114434000D02*
X153052000Y-115817000D01*
X153052000Y-114434000D02*
X154436000Y-114434000D01*
X153292000Y-114674000D02*
X153292000Y-119514000D01*
X153292000Y-114674000D02*
X163192000Y-114674000D01*
X153292000Y-119514000D02*
X163192000Y-119514000D01*
X156212000Y-116459000D02*
X156212000Y-117729000D01*
X156212000Y-116579000D02*
X157565333Y-116579000D01*
X156212000Y-116699000D02*
X157565333Y-116699000D01*
X156212000Y-116819000D02*
X157565333Y-116819000D01*
X156212000Y-116939000D02*
X157565333Y-116939000D01*
X156212000Y-117059000D02*
X157565333Y-117059000D01*
X156212000Y-117179000D02*
X157565333Y-117179000D01*
X156212000Y-117299000D02*
X157565333Y-117299000D01*
X156212000Y-117419000D02*
X157565333Y-117419000D01*
X156212000Y-117539000D02*
X157565333Y-117539000D01*
X156212000Y-117659000D02*
X157565333Y-117659000D01*
X156212000Y-117729000D02*
X160272000Y-117729000D01*
X157565333Y-116459000D02*
X157565333Y-117729000D01*
X160272000Y-116459000D02*
X156212000Y-116459000D01*
X160272000Y-117729000D02*
X160272000Y-116459000D01*
X163192000Y-114674000D02*
X163192000Y-119514000D01*
%TO.C,C1*%
X171569748Y-122328000D02*
X172092252Y-122328000D01*
X171569748Y-123798000D02*
X172092252Y-123798000D01*
%TD*%
M02*
